<svg width="9" height="13" viewBox="0 0 9 13" fill="none" xmlns="http://www.w3.org/2000/svg">
<g clip-path="url(#clip0)">
<path d="M4.5 6.49999C4.5 5.30331 5.50729 4.33333 6.75 4.33333C7.99271 4.33333 9 5.30331 9 6.49999C9 7.69668 7.99271 8.66666 6.75 8.66666C5.50729 8.66666 4.5 7.69668 4.5 6.49999Z" fill="#1ABCFE"/>
<path d="M0 10.8333C0 9.63665 1.00729 8.66667 2.25 8.66667H4.5V10.8333C4.5 12.03 3.49271 13 2.25 13C1.00729 13 0 12.03 0 10.8333Z" fill="#0ACF83"/>
<path d="M4.5 0V4.33333H6.75C7.99271 4.33333 9 3.36335 9 2.16667C9 0.969982 7.99271 0 6.75 0H4.5Z" fill="#FF7262"/>
<path d="M0 2.16667C0 3.36335 1.00729 4.33333 2.25 4.33333H4.5V0H2.25C1.00729 0 0 0.969982 0 2.16667Z" fill="#F24E1E"/>
<path d="M0 6.49999C0 7.69668 1.00729 8.66666 2.25 8.66666H4.5V4.33333H2.25C1.00729 4.33333 0 5.30331 0 6.49999Z" fill="#A259FF"/>
</g>
<defs>
<clipPath id="clip0">
<rect width="9" height="13" fill="white"/>
</clipPath>
</defs>
</svg>
