<svg width="31" height="19" viewBox="0 0 31 19" fill="none" xmlns="http://www.w3.org/2000/svg">
<g clip-path="url(#clip0)">
<path d="M7.3276 4.95539H13.1648V5.42757H7.86281V8.98091H12.8486V9.45308H7.86281V13.3543H13.2256V13.8265H7.3276V4.95539ZM13.6877 4.95539H14.308L17.0563 8.85664L19.8654 4.95539L23.6863 0L17.409 9.26668L20.6437 13.8265H19.9991L17.0563 9.67672L14.1013 13.8265H13.4689L16.7279 9.26668L13.6879 4.95539H13.6877ZM20.8749 5.42757V4.95539H27.5266V5.42757H24.4623V13.8263H23.9271V5.42757H20.8751H20.8749ZM0.0251465 4.95539H0.694054L9.91689 19L6.10546 13.8265L0.584455 5.62631L0.560147 13.8265H0.0251465V4.95539ZM27.473 13.2118C27.3634 13.2118 27.2814 13.1256 27.2814 13.0143C27.2814 12.9028 27.3634 12.8166 27.4728 12.8166C27.5834 12.8166 27.6641 12.9028 27.6641 13.0143C27.6641 13.1256 27.5834 13.2118 27.4728 13.2118H27.473ZM27.9986 12.6919H28.285C28.289 12.8498 28.4024 12.9558 28.5688 12.9558C28.7548 12.9558 28.8603 12.8419 28.8603 12.6283V11.2758H29.1517V12.6296C29.1517 13.0143 28.9332 13.2358 28.5713 13.2358C28.2318 13.2358 27.9988 13.0209 27.9988 12.6919H27.9986ZM29.5329 12.6749H29.8219C29.8466 12.8564 30.021 12.9717 30.2723 12.9717C30.5063 12.9717 30.6782 12.8483 30.6782 12.6787C30.6782 12.533 30.569 12.4453 30.3202 12.3857L30.0782 12.3261C29.7387 12.2453 29.5836 12.078 29.5836 11.7969C29.5836 11.4561 29.8569 11.2292 30.2668 11.2292C30.6482 11.2292 30.9269 11.4561 30.9437 11.7782H30.6599C30.6327 11.602 30.4818 11.4918 30.263 11.4918C30.0325 11.4918 29.8791 11.6046 29.8791 11.7769C29.8791 11.9135 29.978 11.9918 30.2228 12.0502L30.4296 12.1019C30.8148 12.1934 30.9736 12.3525 30.9736 12.6402C30.9736 13.0062 30.6949 13.2358 30.25 13.2358C29.8336 13.2358 29.5537 13.0168 29.5329 12.6747V12.6749Z" fill="white"/>
</g>
<defs>
<clipPath id="clip0">
<rect width="31" height="19" fill="white"/>
</clipPath>
</defs>
</svg>
