<svg width="43" height="11" viewBox="0 0 43 11" fill="none" xmlns="http://www.w3.org/2000/svg">
<path d="M21.6684 3.24144C20.0175 3.24144 18.8251 4.32089 18.8251 5.93653C18.8251 7.55218 20.1656 8.63163 21.8165 8.63163C22.8184 8.63163 23.6932 8.23653 24.2435 7.57334L23.1006 6.91015C22.7972 7.24175 22.3386 7.43224 21.8236 7.43224C21.104 7.43224 20.4972 7.05831 20.2714 6.45862H24.4693C24.5046 6.28929 24.5187 6.11997 24.5187 5.93653C24.5116 4.31383 23.3264 3.24144 21.6684 3.24144ZM20.2503 5.40739C20.4408 4.8077 20.9487 4.43377 21.6684 4.43377C22.388 4.43377 22.896 4.8077 23.0865 5.40739H20.2503ZM37.7895 3.24144C36.1386 3.24144 34.9463 4.32089 34.9463 5.93653C34.9463 7.55218 36.2868 8.63163 37.9377 8.63163C38.9395 8.63163 39.8144 8.23653 40.3647 7.57334L39.2218 6.91015C38.9184 7.24175 38.4598 7.43224 37.9448 7.43224C37.2251 7.43224 36.6184 7.05831 36.3926 6.45862H40.5905C40.6257 6.28929 40.6399 6.11997 40.6399 5.93653C40.6399 4.31383 39.4475 3.24144 37.7895 3.24144ZM36.3785 5.40739C36.569 4.8077 37.077 4.43377 37.7966 4.43377C38.5162 4.43377 39.0242 4.8077 39.2147 5.40739H36.3785ZM30.5368 5.93653C30.5368 6.83255 31.1224 7.43224 32.0325 7.43224C32.6463 7.43224 33.1119 7.15003 33.3518 6.6985L34.5018 7.36169C34.0291 8.15187 33.1331 8.63163 32.0325 8.63163C30.3745 8.63163 29.1892 7.55218 29.1892 5.93653C29.1892 4.32089 30.3816 3.24144 32.0325 3.24144C33.1331 3.24144 34.0221 3.7212 34.5018 4.51138L33.3518 5.17457C33.1119 4.71598 32.6534 4.44083 32.0325 4.44083C31.1224 4.43377 30.5368 5.03347 30.5368 5.93653ZM42.8834 1.59052V8.47641H41.5359V1.59052H42.8834V1.59052ZM6.08341 0.842667L11.6147 10.4237H0.552124L6.08341 0.842667ZM19.9187 1.59052L15.7702 8.77979L11.6218 1.59052H13.181L15.7773 6.08469L18.3736 1.59052H19.9187ZM28.7377 3.3896V4.84298C28.5895 4.80064 28.4273 4.77242 28.258 4.77242C27.3902 4.77242 26.7622 5.37212 26.7622 6.26813V8.48347H25.4147V3.3896H26.7622V4.76537C26.7622 4.0034 27.6441 3.3896 28.7377 3.3896Z" fill="white"/>
</svg>
